<?xml version="1.0" encoding="UTF-8" standalone="no"?>
<!-- Generator: Adobe Illustrator 20.0.0, SVG Export Plug-In . SVG Version: 6.00 Build 0)  -->

<svg
   xmlns:dc="http://purl.org/dc/elements/1.1/"
   xmlns:cc="http://creativecommons.org/ns#"
   xmlns:rdf="http://www.w3.org/1999/02/22-rdf-syntax-ns#"
   xmlns:svg="http://www.w3.org/2000/svg"
   xmlns="http://www.w3.org/2000/svg"
   xmlns:sodipodi="http://sodipodi.sourceforge.net/DTD/sodipodi-0.dtd"
   xmlns:inkscape="http://www.inkscape.org/namespaces/inkscape"
   version="1.1"
   id="Layer_1"
   x="0px"
   y="0px"
   viewBox="0 0 30 30"
   style="enable-background:new 0 0 30 30;"
   xml:space="preserve"
   inkscape:version="0.91 r13725"
   sodipodi:docname="marker-icon-white-vegvesen.svg"><metadata
     id="metadata22"><rdf:RDF><cc:Work
         rdf:about=""><dc:format>image/svg+xml</dc:format><dc:type
           rdf:resource="http://purl.org/dc/dcmitype/StillImage" /><dc:title></dc:title></cc:Work></rdf:RDF></metadata><defs
     id="defs20"><clipPath
       id="clipPath4783"
       clipPathUnits="userSpaceOnUse"><path
         inkscape:connector-curvature="0"
         id="path4785"
         d="m 0.06,336.887 453.12,0 0,-336.827 -453.12,0 0,336.827 z" /></clipPath><clipPath
       id="clipPath4863"
       clipPathUnits="userSpaceOnUse"><path
         inkscape:connector-curvature="0"
         id="path4865"
         d="m 0.06,336.887 453.12,0 0,-336.827 -453.12,0 0,336.827 z" /></clipPath><clipPath
       id="clipPath4881"
       clipPathUnits="userSpaceOnUse"><path
         inkscape:connector-curvature="0"
         id="path4883"
         d="m 0.06,336.887 453.12,0 0,-336.827 -453.12,0 0,336.827 z" /></clipPath></defs><sodipodi:namedview
     pagecolor="#ffffff"
     bordercolor="#666666"
     borderopacity="1"
     objecttolerance="10"
     gridtolerance="10"
     guidetolerance="10"
     inkscape:pageopacity="0"
     inkscape:pageshadow="2"
     inkscape:window-width="1192"
     inkscape:window-height="712"
     id="namedview18"
     showgrid="true"
     inkscape:zoom="11.125147"
     inkscape:cx="19.03444"
     inkscape:cy="20.031826"
     inkscape:window-x="563"
     inkscape:window-y="256"
     inkscape:window-maximized="0"
     inkscape:current-layer="g8"><inkscape:grid
       type="xygrid"
       id="grid5022" /></sodipodi:namedview><g
     id="XMLID_2_"><g
       id="g4"><path
         style="fill:#f0f0f0;fill-opacity:1"
         d="M15,28.9c-1.6-3-8-9.4-9.9-13.5c-0.6-1.3-1-2.7-1-4.2C4.2,5.7,9.1,1.1,15,1.1s10.9,4.6,10.9,10.1    c0,1.5-0.4,2.9-1,4.2l0,0C23,19.5,16.6,25.9,15,28.9L15,28.9z"
         id="path6" /></g><g
       id="g8"><path
         style="fill:none;stroke:#e6e6e6;stroke-width:2;stroke-linecap:round;stroke-miterlimit:10;stroke-opacity:1"
         d="M5.1,15.4    c-0.6-1.3-1-2.7-1-4.2C4.2,5.7,9.1,1.1,15,1.1s10.9,4.6,10.9,10.1c0,1.5-0.4,2.9-1,4.2"
         id="path10" /><line
         style="fill:none;stroke:#e600e6;stroke-width:2;stroke-linecap:round;stroke-miterlimit:10;stroke-opacity:1"
         x1="15.1"
         y1="28.9"
         x2="15.1"
         y2="28.9"
         id="line12" /><path
         style="fill:none;stroke:#e6e6e6;stroke-width:2;stroke-linecap:round;stroke-miterlimit:10;stroke-opacity:1"
         d="M5.1,15.4    c1.9,4.1,8.3,10.5,9.9,13.5"
         id="path14" /><path
         style="fill:none;stroke:#e6e6e6;stroke-width:2;stroke-linecap:round;stroke-miterlimit:10;stroke-opacity:1"
         d="M24.9,15.4    c-1.9,4.1-8.3,10.5-9.9,13.5h0v0"
         id="path16" /><path
         d="m 23.885106,11.538331 -0.398962,0.449964 -3.900889,0 c -0.136739,0.01583 -0.109919,0.188269 0,0.199261 l 3.723788,0 -0.44671,0.503604 -2.90819,0 c -0.122318,0 -0.109919,0.198206 -0.0055,0.198206 l 2.737859,0 -0.42886,0.483291 c 0,0 -0.07554,0.09752 -0.200404,0.09752 l -1.509493,0 c -0.513014,0 -0.632693,0.309532 -0.558564,0.48848 0.140168,0.334241 0.416988,0.841539 -0.403886,0.841539 l -2.069288,0 c -0.163296,0.237864 -0.329055,0.487951 -0.329055,0.487951 -0.0089,0.129881 0.07079,0.670505 -0.486369,0.691786 -0.441082,0.01855 -0.60596,-0.300914 -0.343474,-0.678771 0,0 0.614842,-1.088373 0.678683,-1.205151 0.05909,-0.115019 0.113348,-0.141839 0.256947,-0.141839 l 1.534116,0 c 0.32281,0 0.22529,-0.286844 0.150369,-0.412855 -0.07554,-0.126803 -0.49868,-0.863962 -0.602267,-1.042559 -0.105259,-0.178244 -0.07571,-0.253516 -0.02357,-0.358599 0.05083,-0.102708 0.237073,-0.43009 0.311905,-0.55786 0.07562,-0.126363 0.09101,-0.148171 0.188269,-0.15459 l 4.990317,0 c 0.08037,0 0.09497,0.05294 0.04326,0.110622 z m -15.6619443,2.14034 0.6421016,0 c 0.246043,0 0.321755,0.0692 0.344618,0.117042 0.02031,0.04274 0.01688,0.09585 -0.0066,0.148522 -0.06595,0.152744 -0.148083,0.342859 -0.148083,0.527259 0,0.09462 0.02163,0.187742 0.07809,0.273566 0.11669,0.177453 0.343827,0.26363 0.694424,0.26363 l 1.9583137,0 c 0.07044,0.104379 0.188885,0.279985 0.232149,0.34409 0,0.004 -1.76e-4,0.0078 -1.76e-4,0.0117 0,0.529369 0.230918,0.806365 0.686333,0.823776 0.286845,0.01214 0.513717,-0.09374 0.621877,-0.290274 0.111854,-0.203218 0.07562,-0.464033 -0.0991,-0.715703 l -0.664525,-1.181408 c -0.108688,-0.211748 -0.255451,-0.255012 -0.442313,-0.255012 l -1.545722,-9.67e-4 c 0.0068,-0.027 0.02005,-0.06296 0.04027,-0.09708 l 0.395619,-0.683783 0.207966,-0.360446 c 0.07299,-0.123901 0.09963,-0.223179 0.09963,-0.308652 0,-0.09409 -0.03218,-0.171737 -0.06973,-0.247537 -0.05593,-0.112821 -0.248856,-0.451019 -0.318765,-0.570435 l -0.003,-0.0049 c -0.08785,-0.146763 -0.175078,-0.244283 -0.339252,-0.252725 l -2.3641357,0 C 10,2 20,2 21.202723,11.219334 l -2.376974,0 c -0.164174,0.0084 -0.25167,0.105962 -0.339429,0.252725 l -0.0029,0.0049 c -0.06991,0.119416 -0.26275,0.457614 -0.318765,0.570435 -0.03764,0.0758 -0.06973,0.153446 -0.06973,0.247537 0,0.08547 0.02664,0.184751 0.09963,0.308652 l 0.207967,0.360446 0.395532,0.683783 c 0.02031,0.03412 0.03368,0.07008 0.04036,0.09708 l -1.545723,9.67e-4 c -0.186863,0 -0.333539,0.04326 -0.442227,0.255012 l -0.664701,1.181408 c -0.174639,0.25167 -0.210693,0.512485 -0.0991,0.715703 0.108248,0.196535 0.33512,0.302409 0.621965,0.290274 0.455416,-0.01741 0.686246,-0.294407 0.686246,-0.823776 0,-0.0039 -1.76e-4,-0.0077 -1.76e-4,-0.0117 0.04335,-0.0641 0.161801,-0.239711 0.232237,-0.34409 l 1.958314,0 c 0.350685,0 0.577734,-0.08618 0.694512,-0.26363 0.05637,-0.08582 0.078,-0.178948 0.078,-0.273566 0,-0.1844 -0.08213,-0.374515 -0.148083,-0.527259 -0.02357,-0.05267 -0.027,-0.105786 -0.0065,-0.148522 0.02286,-0.04784 0.09858,-0.117042 0.34453,-0.117042 l 0.655028,0 c -0.331193,7.155324 -12.2804218,7.962274 -12.9795743,0 z M 7.3558579,13.470177 c -0.1249558,0 -0.20058,-0.09752 -0.20058,-0.09752 l -0.4287715,-0.483291 2.7377709,0 c 0.104467,0 0.116866,-0.198206 -0.0054,-0.198206 l -2.9081891,0 -0.4467981,-0.503604 3.7238752,0 c 0.1099193,-0.01099 0.1367393,-0.183432 0,-0.199261 l -3.9006248,0 -0.3993632,-0.449964 c -0.05153,-0.05769 -0.037109,-0.110622 0.043352,-0.110622 l 4.9903167,0 c 0.09726,0.0064 0.112644,0.02823 0.188268,0.15459 0.07483,0.12777 0.260992,0.455152 0.311906,0.55786 0.05214,0.105083 0.08169,0.180355 -0.02339,0.358599 -0.103763,0.178597 -0.526906,0.915756 -0.60253,1.042559 -0.07483,0.126011 -0.172441,0.412855 0.150457,0.412855 l 1.534114,0 c 0.143511,0 0.197854,0.02682 0.256859,0.141839 0.06393,0.116778 0.678771,1.205151 0.678771,1.205151 0.262486,0.377857 0.09761,0.697325 -0.343475,0.678771 -0.557156,-0.02128 -0.477487,-0.561905 -0.486369,-0.691786 0,0 -0.165581,-0.250087 -0.329053,-0.487951 l -2.0692877,0 c -0.820962,0 -0.544055,-0.507298 -0.403886,-0.841539 0.07413,-0.178948 -0.04537,-0.48848 -0.558564,-0.48848 z m 16.7461831,-2.0969 c -0.04309,-0.09629 -0.140344,-0.153974 -0.260199,-0.153974 l -2.430263,0 C 21.536012,1 8,1 8.0146676,11.219303 l -2.4435403,0 c -0.1197676,0 -0.2170238,0.05768 -0.2601999,0.153974 -0.014685,0.0328 -0.021896,0.06736 -0.021896,0.102181 0,0.06964 0.028491,0.140344 0.083274,0.201635 0,0 1.6267992,1.83371 1.627063,1.833886 0.033943,0.03983 0.158547,0.167692 0.3564889,0.167692 l 0.6588097,0 c -0.7909947,7.954401 13.52403,8.441852 13.396911,0 l 0.64562,0 c 0.197854,0 0.32237,-0.127857 0.356401,-0.167692 1.76e-4,-1.76e-4 1.627063,-1.833886 1.627063,-1.833886 0.05487,-0.06129 0.08336,-0.131991 0.08336,-0.201635 0,-0.03482 -0.0072,-0.06938 -0.02198,-0.102181 z m -8.127841,0.810498 -1.110181,2.015296 c -0.03658,0.05584 -0.07571,0.151864 -0.1567,0.151864 -0.07835,0 -0.121087,-0.09532 -0.154414,-0.151864 l -1.115017,-2.015296 c -0.02339,-0.03676 -0.03711,-0.08073 -0.02339,-0.126715 0.0124,-0.02128 0.04335,-0.05223 0.07905,-0.05223 l 2.427096,0 c 0.03913,0 0.06938,0.03095 0.07826,0.05223 0.01442,0.04599 0,0.08996 -0.0247,0.126715 z m 0.220717,-0.198382 -0.0038,-0.0089 c -0.03623,-0.08677 -0.136565,-0.179984 -0.27049,-0.179984 l -2.427096,0 c -0.124516,0 -0.217463,0.08389 -0.259321,0.155821 l -0.0124,0.02137 -0.007,0.02374 c -0.02937,0.09822 -0.01258,0.204098 0.04722,0.298188 l 1.133572,2.046338 c 0.03641,0.06481 0.121086,0.21588 0.310323,0.217463 0.189676,-0.0015 0.274533,-0.148522 0.310762,-0.211308 l 1.130494,-2.04792 c 0.06437,-0.09576 0.0824,-0.204273 0.05065,-0.305487 l -0.0029,-0.0093 z m 1.537282,-0.704008 -2.650365,4.805037 c -0.08591,0.133661 -0.206295,0.358599 -0.371525,0.358599 -0.169979,0 -0.286757,-0.22696 -0.370383,-0.358599 l -2.649748,-4.805037 c -0.05698,-0.08996 -0.09277,-0.196447 -0.05698,-0.303992 0.02471,-0.04942 0.09682,-0.118448 0.186159,-0.118448 l 5.783667,0 c 0.09005,0 0.162856,0.06903 0.185719,0.118448 0.03553,0.107545 0,0.214034 -0.05654,0.303992 z m 0.254396,-0.369679 -0.0038,-0.01082 -0.0048,-0.01029 c -0.05285,-0.115629 -0.192839,-0.239969 -0.374953,-0.239969 l -5.783667,0 c -0.175694,0 -0.316391,0.121086 -0.372581,0.233731 l -0.0067,0.01319 -0.0047,0.01416 c -0.03491,0.105258 -0.04986,0.271807 0.07316,0.471948 l 2.718953,4.914516 c 0.07677,0.130671 0.204888,0.348926 0.477927,0.355258 l 0.0049,8.8e-5 0.0046,-8.8e-5 c 0.276732,-0.0062 0.404325,-0.22573 0.480829,-0.356665 l 2.718866,-4.914429 c 0.121438,-0.199964 0.106489,-0.366073 0.07202,-0.470628 z"
         style="fill:#0a0a0a;fill-opacity:1;fill-rule:nonzero;stroke:none;stroke-width:10;stroke-miterlimit:4;stroke-dasharray:none"
         id="path4817"
         inkscape:connector-curvature="0"
         sodipodi:nodetypes="ccccccssccsscscccccsscccccscccsccscsccscccccccccsccccccccccscccccccccsccscsccsccsccssccccccscccccsscccccscsscsccscsccsccsccscccscccssccccsscccccccccccccscccsscccccsscccccccccccc" /></g></g></svg>