<?xml version="1.0" encoding="UTF-8" standalone="no"?>
<!-- Generator: Adobe Illustrator 20.0.0, SVG Export Plug-In . SVG Version: 6.00 Build 0)  -->

<svg
   xmlns:dc="http://purl.org/dc/elements/1.1/"
   xmlns:cc="http://creativecommons.org/ns#"
   xmlns:rdf="http://www.w3.org/1999/02/22-rdf-syntax-ns#"
   xmlns:svg="http://www.w3.org/2000/svg"
   xmlns="http://www.w3.org/2000/svg"
   xmlns:sodipodi="http://sodipodi.sourceforge.net/DTD/sodipodi-0.dtd"
   xmlns:inkscape="http://www.inkscape.org/namespaces/inkscape"
   version="1.1"
   id="Layer_1"
   x="0px"
   y="0px"
   viewBox="0 0 30 30"
   style="enable-background:new 0 0 30 30;"
   xml:space="preserve"
   inkscape:version="0.91 r13725"
   sodipodi:docname="marker-icon-white.svg"><metadata
     id="metadata22"><rdf:RDF><cc:Work
         rdf:about=""><dc:format>image/svg+xml</dc:format><dc:type
           rdf:resource="http://purl.org/dc/dcmitype/StillImage" /><dc:title></dc:title></cc:Work></rdf:RDF></metadata><defs
     id="defs20" /><sodipodi:namedview
     pagecolor="#ffffff"
     bordercolor="#666666"
     borderopacity="1"
     objecttolerance="10"
     gridtolerance="10"
     guidetolerance="10"
     inkscape:pageopacity="0"
     inkscape:pageshadow="2"
     inkscape:window-width="1192"
     inkscape:window-height="712"
     id="namedview18"
     showgrid="false"
     inkscape:zoom="7.8666667"
     inkscape:cx="8.4533898"
     inkscape:cy="15"
     inkscape:window-x="0"
     inkscape:window-y="0"
     inkscape:window-maximized="0"
     inkscape:current-layer="g8" /><g
     id="XMLID_2_"><g
       id="g4"><path
         style="fill:#f0f0f0;fill-opacity:1"
         d="M15,28.9c-1.6-3-8-9.4-9.9-13.5c-0.6-1.3-1-2.7-1-4.2C4.2,5.7,9.1,1.1,15,1.1s10.9,4.6,10.9,10.1    c0,1.5-0.4,2.9-1,4.2l0,0C23,19.5,16.6,25.9,15,28.9L15,28.9z"
         id="path6" /></g><g
       id="g8"><path
         style="fill:none;stroke:#e6e6e6;stroke-width:2;stroke-linecap:round;stroke-miterlimit:10;stroke-opacity:1"
         d="M5.1,15.4    c-0.6-1.3-1-2.7-1-4.2C4.2,5.7,9.1,1.1,15,1.1s10.9,4.6,10.9,10.1c0,1.5-0.4,2.9-1,4.2"
         id="path10" /><line
         style="fill:none;stroke:#87C2DE;stroke-width:2;stroke-linecap:round;stroke-miterlimit:10;"
         x1="15.1"
         y1="28.9"
         x2="15.1"
         y2="28.9"
         id="line12" /><path
         style="fill:none;stroke:#e6e6e6;stroke-width:2;stroke-linecap:round;stroke-miterlimit:10;stroke-opacity:1"
         d="M5.1,15.4    c1.9,4.1,8.3,10.5,9.9,13.5"
         id="path14" /><path
         style="fill:none;stroke:#e6e6e6;stroke-width:2;stroke-linecap:round;stroke-miterlimit:10;stroke-opacity:1"
         d="M24.9,15.4    c-1.9,4.1-8.3,10.5-9.9,13.5h0v0"
         id="path16" /></g></g></svg>